{"title":"Eva Angelina vs. Teagan DVD","uid":7085237,"size":1990251737,"categoryP":"porn","categoryS":"movies","magnet":"?xt=urn:btih:b4bda1101c3f4c2f31de12c7da184a806c13fd20&amp;dn=Eva+Angelina+vs.+Teagan+DVD&amp;tr=udp%3A%2F%2Ftracker.openbittorrent.com%3A80&amp;tr=udp%3A%2F%2Fopen.demonii.com%3A1337&amp;tr=udp%3A%2F%2Ftracker.coppersurfer.tk%3A6969&amp;tr=udp%3A%2F%2Fexodus.desync.com%3A6969","seeders":1,"leechers":0,"uploader":"tigris1968","files":99,"time":1331160840,"description":"Eva Angelina vs. Teagan DVD\nZero Tolerance\n\nCategory \tAll Sex, Compilation, Star-Power\n\nStarring \tEva Angelina, Lindsey Meadows, Teagan Presley, Gianna Lynn, Savanah Gold\n\n\n\nWatch as two of the Hottest XXX Stars fuck and suck their way through a 16-hour big tit throwdown! Perennial fan faves Eva Angelina and Teagan get their competitive juices flowing in this head to head, pussy to pussy fuckfest. Eva Angelina vs Teagan is guaranteed to deliver a knockout!\n\nStudio Zero Tolerance \n\nDiscs 1 \nRelease Date Apr 07, 2010\n &lt;a href=&quot;\nhttp://bayimg.com/KaNAHAadc&quot; rel=&quot;nofollow&quot; target=&quot;_NEW&quot;&gt;\nhttp://bayimg.com/KaNAHAadc&lt;/a&gt;\n &lt;a href=&quot;\nhttp://bayimg.com/kANajAAdC&quot; rel=&quot;nofollow&quot; target=&quot;_NEW&quot;&gt;\nhttp://bayimg.com/kANajAAdC&lt;/a&gt;\n &lt;a href=&quot;\nhttp://bayimg.com/KaNAmAaDc&quot; rel=&quot;nofollow&quot; target=&quot;_NEW&quot;&gt;\nhttp://bayimg.com/KaNAmAaDc&lt;/a&gt;\n\n                                  info\n\nGeneral\nComplete name                    : C:DownloadsEva Angelina vs. Teagan DVDdvdEva Angelina vs. Teagan DVD.avi\nFormat                           : AVI\nFormat/Info                      : Audio Video Interleave\nFormat profile                   : OpenDML\nFile size                        : 1.83 GiB\nDuration                         : 3h 15mn\nOverall bit rate                 : 1 338 Kbps\nWriting application              : MEncoder SVN-r30881(20100311-gcc4.3.3)\nWriting library                  : MPlayer\n\nVideo\nID                               : 0\nFormat                           : MPEG-4 Visual\nFormat profile                   : Advanced Simple@L5\nFormat settings, BVOP            : 2\nFormat settings, QPel            : No\nFormat settings, GMC             : No warppoints\nFormat settings, Matrix          : Default (H.263)\nCodec ID                         : XVID\nCodec ID/Hint                    : XviD\nDuration                         : 3h 15mn\nBit rate                         : 33.3 Kbps\nWidth                            : 720 pixels\nHeight                           : 480 pixels\nDisplay aspect ratio             : 3:2\nFrame rate                       : 25.000 fps\nStandard                         : NTSC\nColor space                      : YUV\nChroma subsampling               : 4:2:0\nBit depth                        : 8 bits\nScan type                        : Progressive\nCompression mode                 : Lossy\nBits/(Pixel*Frame)               : 0.004\nStream size                      : 46.6 MiB (2%)\nWriting library                  : XviD 1.2.1 (UTC 2008-12-04)\n\nAudio\nID                               : 1\nFormat                           : MPEG Audio\nCodec ID                         : 55\nCodec ID/Hint                    : MP3\nDuration                         : 3h 15mn\nBit rate                         : 128 Kbps\nChannel(s)                       : 2 channels\nSampling rate                    : 44.1 KHz\nCompression mode                 : Lossy\nStream size                      : 179 MiB (10%)\nAlignment                        : Aligned on interleaves\n\n","torrent":{"xt":"urn:btih:b4bda1101c3f4c2f31de12c7da184a806c13fd20","amp;dn":"Eva+Angelina+vs.+Teagan+DVD","amp;tr":["udp%3A%2F%2Ftracker.openbittorrent.com%3A80","udp%3A%2F%2Fopen.demonii.com%3A1337","udp%3A%2F%2Ftracker.coppersurfer.tk%3A6969","udp%3A%2F%2Fexodus.desync.com%3A6969"],"infoHash":"b4bda1101c3f4c2f31de12c7da184a806c13fd20","infoHashBuffer":{"type":"Buffer","data":[180,189,161,16,28,63,76,47,49,222,18,199,218,24,74,128,108,19,253,32]},"announce":[],"urlList":[]}}